<svg width="3550" height="3857" viewBox="0 0 3550 3857" fill="none" xmlns="http://www.w3.org/2000/svg">
<path d="M3550 1466.49V3221.72L2778.79 2607.76V1160.46L1868.22 451.399C1780.07 379.221 1742.89 393.71 1683.66 451.399L775.915 1160.46V2607.76L10.3581 3202.88L0 1546.53C18.228 1321.26 102.348 1217.32 328.634 1054.99L1450.13 170.789C1686.62 -39.7449 1831.85 -84.7023 2154.48 202.805L3243.97 1054.99C3448.32 1214.54 3518.26 1304.6 3550 1466.49Z" fill="white"/>
<path d="M1879.52 1893.06C1836.16 1870.58 1819.14 1878.29 1789.12 1893.06V2830.93L3052.81 3800.83C3330.01 3878.74 3453.02 3857.17 3550 3572.01V3221.72L1879.52 1893.06Z" fill="white"/>
<path d="M1603.62 1967.45L10.3584 3202.88V3644.52C179.151 3861.7 284.094 3959.19 652.56 3705.72C1089.34 3348.03 1329.82 3137.48 1789.12 2830.93V1893.06C1700.32 1898.54 1664.18 1921.27 1603.62 1967.45Z" fill="white"/>
<rect x="1485.92" y="1087.01" width="276.844" height="248.594" rx="17" fill="white"/>
<rect x="1796.66" y="1087.01" width="276.844" height="248.594" rx="17" fill="white"/>
<rect x="1796.66" y="1382.69" width="276.844" height="248.594" rx="17" fill="white"/>
<rect x="1485.92" y="1382.69" width="276.844" height="248.594" rx="17" fill="white"/>
</svg>
